name analog
datacolumns 19
datarows 28
range 0.0 0.0135
endheader
time	ground_force_vx	ground_force_vy	ground_force_vz	ground_force_px	ground_force_py	ground_force_pz	l_ground_force_vx	l_ground_force_vy	l_ground_force_vz	l_ground_force_px	l_ground_force_py	l_ground_force_pz	ground_torque_x	ground_torque_y	ground_torque_z	l_ground_torque_x	l_ground_torque_y	l_ground_torque_z
0.0	-0.0	-0.0	-0.0	-0.0	-0.0	-0.0	-0.8342022895812988	2.3133890628814697	-745.7276611328125	-0.0	-0.0	-0.0	-0.0	-0.0	-0.0	208737.40625	3464.710693359375	-1640.116943359375
0.0005	-0.0	-0.0	-0.0	-0.0	-0.0	-0.0	-1.1258668899536133	1.9905189275741575	-747.6673583984375	-0.0	-0.0	-0.0	-0.0	-0.0	-0.0	208969.859375	3492.665771484375	-1734.53955078125
0.001	-0.0	-0.0	-0.0	-0.0	-0.0	-0.0	-0.8068780303001404	1.934697508811951	-747.8447875976562	-0.0	-0.0	-0.0	-0.0	-0.0	-0.0	209701.828125	3548.61572265625	-1945.891357421875
0.0015	-0.0	-0.0	-0.0	-0.0	-0.0	-0.0	-0.9728755950927734	2.0479347705841064	-749.5086669921875	-0.0	-0.0	-0.0	-0.0	-0.0	-0.0	210095.421875	3819.645263671875	-2124.40869140625
0.002	-0.0	-0.0	-0.0	-0.0	-0.0	-0.0	-1.1227591037750244	2.171419382095337	-750.1468505859375	-0.0	-0.0	-0.0	-0.0	-0.0	-0.0	210845.125	3913.781494140625	-2294.576171875
0.0025	-0.0	-0.0	-0.0	-0.0	-0.0	-0.0	-1.3635972738265991	1.896403431892395	-750.4564819335938	-0.0	-0.0	-0.0	-0.0	-0.0	-0.0	210992.46875	4196.41455078125	-2382.936767578125
0.003	-0.0	-0.0	-0.0	-0.0	-0.0	-0.0	-1.1333428621292114	1.7444486618041992	-749.922607421875	-0.0	-0.0	-0.0	-0.0	-0.0	-0.0	211224.421875	4165.3447265625	-2440.95068359375
0.0035	-0.0	-0.0	-0.0	-0.0	-0.0	-0.0	-0.8941231966018677	1.3225719928741455	-749.3985595703125	-0.0	-0.0	-0.0	-0.0	-0.0	-0.0	211523.5	4519.1494140625	-2545.9482421875
0.004	-0.0	-0.0	-0.0	-0.0	-0.0	-0.0	-1.3306617736816406	2.1523728370666504	-750.2257080078125	-0.0	-0.0	-0.0	-0.0	-0.0	-0.0	212041.171875	4599.62646484375	-2647.365966796875
0.0045000000000000005	-0.0	-0.0	-0.0	-0.0	-0.0	-0.0	-0.929646372795105	2.798059225082397	-752.12841796875	-0.0	-0.0	-0.0	-0.0	-0.0	-0.0	212723.0	4695.6650390625	-2897.543212890625
0.005	-0.0	-0.0	-0.0	-0.0	-0.0	-0.0	-1.326780915260315	2.502188205718994	-752.680419921875	-0.0	-0.0	-0.0	-0.0	-0.0	-0.0	213344.40625	5075.931640625	-2942.356201171875
0.0055	-0.0	-0.0	-0.0	-0.0	-0.0	-0.0	-1.037311553955078	2.7678050994873047	-753.2996215820312	-0.0	-0.0	-0.0	-0.0	-0.0	-0.0	213977.015625	5176.17236328125	-3023.36083984375
0.006	-0.0	-0.0	-0.0	-0.0	-0.0	-0.0	-1.2139489650726318	2.8990509510040283	-753.514404296875	-0.0	-0.0	-0.0	-0.0	-0.0	-0.0	214375.53125	5233.59912109375	-3209.518798828125
0.006500000000000001	-0.0	-0.0	-0.0	-0.0	-0.0	-0.0	-0.8416381478309631	3.282252788543701	-751.5924072265625	-0.0	-0.0	-0.0	-0.0	-0.0	-0.0	214821.296875	5603.1025390625	-3341.41650390625
0.007	-0.0	-0.0	-0.0	-0.0	-0.0	-0.0	-1.100159764289856	3.996603965759277	-755.198974609375	-0.0	-0.0	-0.0	-0.0	-0.0	-0.0	215359.265625	5570.12109375	-3420.764892578125
0.0075	-0.0	-0.0	-0.0	-0.0	-0.0	-0.0	-0.7234163880348206	4.990110874176025	-756.3793334960938	-0.0	-0.0	-0.0	-0.0	-0.0	-0.0	216204.703125	5426.19873046875	-3489.906494140625
0.008	-0.0	-0.0	-0.0	-0.0	-0.0	-0.0	-0.2363198399543762	6.325954914093018	-759.4791870117188	-0.0	-0.0	-0.0	-0.0	-0.0	-0.0	217601.578125	5638.63720703125	-3391.341064453125
0.0085	-0.0	-0.0	-0.0	-0.0	-0.0	-0.0	-0.2661323547363281	8.331369400024414	-763.1841430664062	-0.0	-0.0	-0.0	-0.0	-0.0	-0.0	218840.453125	5560.36962890625	-3325.33740234375
0.009000000000000001	-0.0	-0.0	-0.0	-0.0	-0.0	-0.0	0.1182568147778511	9.432353973388672	-768.29541015625	-0.0	-0.0	-0.0	-0.0	-0.0	-0.0	220117.796875	5548.720703125	-3237.141357421875
0.0095	-0.0	-0.0	-0.0	-0.0	-0.0	-0.0	0.2365596890449524	10.414657592773438	-769.55908203125	-0.0	-0.0	-0.0	-0.0	-0.0	-0.0	220815.359375	5603.98681640625	-3102.00634765625
0.01	-0.0	-0.0	-0.0	-0.0	-0.0	-0.0	-0.0108459070324897	11.871525764465332	-772.2650146484375	-0.0	-0.0	-0.0	-0.0	-0.0	-0.0	221512.375	5864.884765625	-3085.68701171875
0.0105	-0.0	-0.0	-0.0	-0.0	-0.0	-0.0	-0.1036183759570121	12.689370155334473	-773.546875	-0.0	-0.0	-0.0	-0.0	-0.0	-0.0	222215.875	6075.43994140625	-3150.962890625
0.011	-0.0	-0.0	-0.0	-0.0	-0.0	-0.0	-0.6695773601531982	13.218746185302734	-774.2740478515625	-0.0	-0.0	-0.0	-0.0	-0.0	-0.0	222514.515625	6540.9345703125	-3090.849853515625
0.0115	-0.0	-0.0	-0.0	-0.0	-0.0	-0.0	-1.0276806354522705	12.497519493103027	-773.8059692382812	-0.0	-0.0	-0.0	-0.0	-0.0	-0.0	222408.671875	6848.76806640625	-2988.60498046875
0.012	-0.0	-0.0	-0.0	-0.0	-0.0	-0.0	-1.5411319732666016	11.743915557861328	-773.7760009765625	-0.0	-0.0	-0.0	-0.0	-0.0	-0.0	221974.53125	7132.87060546875	-3012.81005859375
0.0125	-0.0	-0.0	-0.0	-0.0	-0.0	-0.0	-2.2611851692199707	10.540345191955566	-772.56103515625	-0.0	-0.0	-0.0	-0.0	-0.0	-0.0	221597.421875	7508.57373046875	-2980.481201171875
0.013000000000000001	-0.0	-0.0	-0.0	-0.0	-0.0	-0.0	-3.0832974910736084	9.417644500732422	-771.1245727539062	-0.0	-0.0	-0.0	-0.0	-0.0	-0.0	220805.53125	7773.7119140625	-3018.484375
0.0135	-0.0	-0.0	-0.0	-0.0	-0.0	-0.0	-3.66758394241333	8.326294898986816	-768.5426025390625	-0.0	-0.0	-0.0	-0.0	-0.0	-0.0	220259.0625	8306.0087890625	-3110.143798828125
